<svg xmlns="http://www.w3.org/2000/svg" viewBox="0 0 311.29 126.77"><defs><style>.cls-1{fill:#c20000;}</style></defs><title>Asset 1</title><g id="Layer_2" data-name="Layer 2"><g id="Layer_1-2" data-name="Layer 1"><path class="cls-1" d="M54.56,94.08H43.66v-43a25,25,0,0,0-.95-7.42,13,13,0,0,0-2.74-5,10.64,10.64,0,0,0-4.29-2.88,16.11,16.11,0,0,0-5.59-.91A19,19,0,0,0,19.48,38a31.55,31.55,0,0,0-8.58,8.62V94.08H0V27.28H8.44l2.11,9.28h.21a38.73,38.73,0,0,1,4-4.32,25.54,25.54,0,0,1,4.78-3.52,24.3,24.3,0,0,1,5.8-2.35,26.38,26.38,0,0,1,6.89-.85,20.48,20.48,0,0,1,12.38,3.59,23.12,23.12,0,0,1,7.59,9.77h.28a35.65,35.65,0,0,1,10.14-9.81A24.74,24.74,0,0,1,75.9,25.52a30.73,30.73,0,0,1,7.47,1,18.9,18.9,0,0,1,7.25,3.62,19.82,19.82,0,0,1,5.49,7.28,28.07,28.07,0,0,1,2.19,12V94.08H87.4v-43a25.35,25.35,0,0,0-1-7.42,13.13,13.13,0,0,0-2.74-5,10.78,10.78,0,0,0-4.29-2.88,16.19,16.19,0,0,0-5.59-.91A19.18,19.18,0,0,0,63.18,38a31.25,31.25,0,0,0-8.62,8.62Z"/><path class="cls-1" d="M107.28,27.28h10.9l20.75,52.38h.43l21.29-52.38h10.9l-41.36,99.49H119.36l14.27-34Z"/><path class="cls-1" d="M182.57,94.08V0H194V94.08Z"/><path class="cls-1" d="M214.34,94.08V0H225.8V94.08Z"/><path class="cls-1" d="M279.86,94.08H268.4V10.34H237V0h74.32V10.34H279.86Z"/></g></g></svg>